<svg width="115" height="22" viewBox="0 0 115 22" fill="none" xmlns="http://www.w3.org/2000/svg">
<g clip-path="url(#clip0_318_13)">
<path d="M1.44816 7.12265C3.09523 6.44555 3.62014 6.55555 4.79219 7.92945C3.2256 8.63675 2.54132 8.36685 1.44816 7.12265ZM20.1396 7.09865C18.4925 6.42155 17.9676 6.53155 16.7955 7.90555C18.3621 8.61275 19.0464 8.34295 20.1396 7.09865ZM9.70937 16.9606C9.44064 18.8717 7.16597 22.2364 4.61297 21.6344C2.94274 20.747 6.35199 20.2037 8.41395 17.2681C8.81387 17.2378 9.24037 17.1359 9.70921 16.9607L9.70937 16.9606ZM15.3377 14.5378C14.651 14.2556 14.1591 14.11 13.7343 14.1361C14.0036 13.7875 14.1935 13.4399 14.3118 13.0806C14.8985 13.1805 15.5772 13.4324 16.4279 13.8102C16.777 13.9412 16.9017 14.3789 16.6623 14.6735C15.4846 16.1197 14.5742 16.8631 13.3665 16.8388C13.1272 16.4715 12.9118 16.0682 12.7321 15.6233C13.8083 15.9295 14.4329 15.5672 15.3377 14.5377V14.5378ZM11.6967 5.48645C13.3748 6.98405 13.9696 7.87005 13.6106 9.31815C13.4036 8.89985 13.1079 8.61595 12.6023 8.65925C12.6235 8.12535 12.3846 7.69875 11.8464 7.13865C11.6998 6.66375 11.3527 5.77415 11.0876 5.36935C11.2859 5.28465 11.529 5.31855 11.6969 5.48665L11.6967 5.48645ZM17.7385 10.8186C16.1033 10.1463 15.5743 10.2501 14.4197 11.5956C14.3612 11.2066 14.2422 10.797 14.0706 10.3538C15.4583 8.96615 16.499 9.05615 18.8287 10.0906C19.1781 10.2216 19.3028 10.6595 19.0632 10.9543C17.4782 12.8999 16.3777 13.5738 14.3852 12.8163C14.4747 12.4273 14.4811 12.0341 14.4262 11.6392C15.9703 12.3287 16.6527 12.0543 17.7386 10.8185L17.7385 10.8186ZM20.5355 0.557377C20.7102 3.64865 20.2436 4.47185 17.2209 5.42515C16.8807 5.53275 16.5355 5.29515 16.5052 4.94475C16.1068 1.87515 17.0397 0.954667 19.8114 0.0285471C20.1732 -0.0915529 20.5399 0.183037 20.5355 0.557546V0.557377ZM19.4703 1.31534C17.9191 1.89875 17.4253 2.44095 17.5335 4.15815C19.2352 3.54585 19.5218 3.09805 19.4703 1.31534ZM14.0973 1.76707C16.4131 3.83325 16.6663 4.73455 15.1959 7.55765C15.0262 7.88135 14.6669 7.92545 14.3759 7.73955C11.9043 5.84805 11.9008 4.53975 13.2139 1.90935C13.3839 1.56969 13.834 1.50287 14.0975 1.7672L14.0973 1.76707ZM13.8829 3.06035C13.1999 4.56945 13.2349 5.30325 14.5246 6.44015C15.294 4.80605 15.1781 4.28225 13.8829 3.06035ZM21.2296 6.37085C21.579 6.50225 21.7037 6.93975 21.4641 7.23455C19.6065 9.51545 18.415 10.0488 15.6714 8.57805C15.3861 8.38375 15.273 8.04515 15.5003 7.75405C17.4675 5.25165 18.3933 5.11145 21.2296 6.37085ZM12.3409 15.7593C10.6632 16.2149 13.5713 22.4606 16.9747 21.6588C18.9019 20.635 14.0671 20.0694 12.3409 15.7593ZM12.2921 9.23025C9.97631 11.2965 9.72274 12.1977 11.1933 15.0208C11.3633 15.3445 11.7223 15.3887 12.0137 15.203C14.4852 13.3112 14.4887 12.0029 13.1757 9.37245C13.0057 9.03285 12.5554 8.96595 12.2921 9.23035V9.23025ZM12.5065 10.5235C13.1892 12.0326 13.1541 12.7664 11.8648 13.9033C11.0954 12.2694 11.2111 11.7458 12.5065 10.5235ZM6.2499 14.562C7.89697 13.8849 8.42205 13.9948 9.59427 15.3688C8.02768 16.0763 7.3434 15.8062 6.2499 14.562ZM5.15966 13.8344C4.81059 13.9654 4.68594 14.4031 4.92532 14.6977C6.78265 16.9786 7.9744 17.512 10.718 16.0412C11.0037 15.847 11.1168 15.5083 10.8891 15.2173C8.92199 12.7148 7.99649 12.5746 5.15984 13.8342L5.15966 13.8344ZM9.89102 5.51065C7.57528 7.57715 7.32204 8.47835 8.79248 11.3012C8.96212 11.6248 9.32147 11.6687 9.61251 11.483C12.084 9.59155 12.0876 8.28295 10.7745 5.65245C10.6045 5.31295 10.1544 5.24635 9.89086 5.51035L9.89102 5.51065ZM10.1055 6.80395C10.7885 8.31295 10.7534 9.04685 9.46372 10.1836C8.69438 8.54975 8.81023 8.02615 10.1055 6.80395ZM3.84929 10.8425C5.49636 10.1654 6.02127 10.2753 7.19332 11.649C5.62673 12.3564 4.94246 12.0865 3.84929 10.8425ZM2.75904 10.1145C2.40964 10.2455 2.28499 10.6834 2.52454 10.9782C4.38216 13.2589 5.57362 13.7923 8.31723 12.3215C8.60258 12.1276 8.71568 11.7887 8.48835 11.4979C6.52121 8.99545 5.59538 8.85535 2.75907 10.1147L2.75904 10.1145ZM1.05232 0.581327C0.877615 3.67265 1.34419 4.49575 4.36686 5.44915C4.70713 5.55665 5.0523 5.31905 5.08259 4.96865C5.48104 1.89905 4.54808 0.978617 1.77635 0.0524968C1.41457 -0.0676132 1.04789 0.206987 1.05232 0.581497V0.581327ZM2.11745 1.33928C3.66873 1.92265 4.16252 2.46485 4.0543 4.18205C2.35262 3.56975 2.06596 3.12195 2.11745 1.33928ZM7.49045 1.79102C5.1747 3.85725 4.92147 4.75845 6.3919 7.58165C6.56155 7.90525 6.9209 7.94945 7.21193 7.76345C9.68345 5.87195 9.68704 4.56365 8.37389 1.93325C8.20392 1.59364 7.75382 1.52682 7.49028 1.79115L7.49045 1.79102ZM7.70491 3.08435C8.38789 4.59335 8.35285 5.32725 7.06314 6.46405C6.2938 4.83005 6.40966 4.30625 7.70491 3.08435ZM0.358173 6.39485C0.00877547 6.52615 -0.115881 6.96375 0.123666 7.25855C1.98129 9.53935 3.17275 10.0727 5.91637 8.60195C6.20172 8.40775 6.31482 8.06915 6.08748 7.77805C4.12034 5.27555 3.19451 5.13535 0.358196 6.39485H0.358173Z" fill="white"/>
<path d="M44.901 10.009C45.135 9.343 45.315 8.812 45.441 8.416C45.585 8.02 45.693 7.714 45.765 7.498C45.837 7.264 45.882 7.084 45.9 6.958C45.918 6.832 45.927 6.715 45.927 6.607C45.927 6.085 45.747 5.824 45.387 5.824C44.901 5.824 44.325 6.157 43.659 6.823C42.993 7.471 42.273 8.416 41.499 9.658C41.229 10.09 40.977 10.531 40.743 10.981C40.509 11.413 40.257 11.962 39.987 12.628C39.717 13.276 39.402 14.104 39.042 15.112C38.682 16.12 38.223 17.416 37.665 19H35.127L36.909 13.573C37.287 12.421 37.602 11.458 37.854 10.684C38.106 9.892 38.304 9.235 38.448 8.713C38.592 8.191 38.691 7.777 38.745 7.471C38.817 7.165 38.853 6.913 38.853 6.715C38.853 6.121 38.628 5.824 38.178 5.824C37.818 5.824 37.386 6.031 36.882 6.445C36.378 6.859 35.865 7.399 35.343 8.065C34.821 8.731 34.317 9.487 33.831 10.333C33.363 11.161 32.967 12.007 32.643 12.871L30.375 19H27.999L29.997 12.817C30.339 11.773 30.618 10.9 30.834 10.198C31.05 9.478 31.221 8.893 31.347 8.443C31.473 7.975 31.563 7.606 31.617 7.336C31.671 7.066 31.698 6.841 31.698 6.661C31.698 6.157 31.545 5.905 31.239 5.905C31.041 5.905 30.807 6.022 30.537 6.256C30.285 6.49 30.024 6.814 29.754 7.228C29.484 7.624 29.214 8.083 28.944 8.605C28.692 9.127 28.467 9.676 28.269 10.252L27.459 9.847C28.089 7.993 28.791 6.625 29.565 5.743C30.357 4.861 31.257 4.42 32.265 4.42C32.841 4.42 33.246 4.582 33.48 4.906C33.732 5.23 33.858 5.77 33.858 6.526C33.858 7.39 33.705 8.218 33.399 9.01L33.48 9.091C35.154 5.977 36.927 4.42 38.799 4.42C39.501 4.42 40.05 4.636 40.446 5.068C40.842 5.482 41.04 6.067 41.04 6.823C41.04 7.075 41.004 7.363 40.932 7.687C40.878 8.011 40.761 8.488 40.581 9.118L40.635 9.199C41.139 8.335 41.616 7.606 42.066 7.012C42.534 6.4 42.984 5.905 43.416 5.527C43.848 5.149 44.28 4.87 44.712 4.69C45.162 4.51 45.621 4.42 46.089 4.42C46.791 4.42 47.313 4.609 47.655 4.987C48.015 5.365 48.195 5.959 48.195 6.769C48.195 7.021 48.168 7.3 48.114 7.606C48.06 7.894 47.979 8.245 47.871 8.659C47.763 9.055 47.619 9.523 47.439 10.063C47.277 10.585 47.079 11.206 46.845 11.926C46.539 12.844 46.296 13.582 46.116 14.14C45.936 14.68 45.801 15.112 45.711 15.436C45.621 15.76 45.558 16.003 45.522 16.165C45.504 16.327 45.495 16.489 45.495 16.651C45.495 16.993 45.585 17.164 45.765 17.164C46.035 17.164 46.44 16.912 46.98 16.408C47.52 15.886 48.222 15.085 49.086 14.005L49.788 14.383C49.482 14.977 49.086 15.571 48.6 16.165C48.132 16.741 47.637 17.263 47.115 17.731C46.593 18.181 46.071 18.55 45.549 18.838C45.045 19.126 44.604 19.27 44.226 19.27C43.776 19.27 43.416 19.081 43.146 18.703C42.894 18.307 42.768 17.785 42.768 17.137C42.768 16.921 42.786 16.678 42.822 16.408C42.876 16.138 42.975 15.751 43.119 15.247C43.281 14.743 43.497 14.077 43.767 13.249C44.055 12.421 44.433 11.341 44.901 10.009ZM51.935 19V4.38182H57.531C58.5874 4.38182 59.4654 4.54837 60.1649 4.88146C60.8691 5.2098 61.3949 5.65948 61.7423 6.2305C62.0944 6.80153 62.2705 7.44869 62.2705 8.17198C62.2705 8.7668 62.1563 9.27596 61.9279 9.69947C61.6995 10.1182 61.3926 10.4585 61.0071 10.7202C60.6217 10.9819 60.191 11.1699 59.7152 11.2841V11.4268C60.2339 11.4554 60.7311 11.6148 61.207 11.905C61.6876 12.1906 62.0802 12.595 62.3847 13.1185C62.6893 13.6419 62.8415 14.2748 62.8415 15.0171C62.8415 15.7737 62.6583 16.4542 62.2919 17.0585C61.9255 17.6581 61.3735 18.1316 60.636 18.4789C59.8984 18.8263 58.9705 19 57.8522 19H51.935ZM54.5831 16.7873H57.4311C58.3923 16.7873 59.0847 16.6041 59.5082 16.2377C59.9365 15.8665 60.1506 15.3907 60.1506 14.8101C60.1506 14.3771 60.0435 13.9869 59.8294 13.6395C59.6153 13.2874 59.3107 13.0114 58.9157 12.8115C58.5208 12.6069 58.0497 12.5046 57.5025 12.5046H54.5831V16.7873ZM54.5831 10.5988H57.2027C57.6595 10.5988 58.0711 10.5156 58.4375 10.349C58.8039 10.1777 59.0918 9.93739 59.3012 9.62809C59.5153 9.31403 59.6224 8.94286 59.6224 8.51459C59.6224 7.94833 59.4225 7.48199 59.0228 7.11559C58.6279 6.74918 58.0402 6.56598 57.2598 6.56598H54.5831V10.5988ZM66.4195 19H63.5929L68.7393 4.38182H72.0084L77.1619 19H74.3353L70.4309 7.37969H70.3167L66.4195 19ZM66.5123 13.2684H74.2211V15.3954H66.5123V13.2684ZM78.4843 19V4.38182H81.1324V11.0985H81.3108L87.0139 4.38182H90.2473L84.5942 10.9414L90.2973 19H87.1139L82.7527 12.733L81.1324 14.646V19H78.4843ZM91.4841 19V4.38182H100.992V6.60167H94.1322V10.5703H100.499V12.7901H94.1322V16.7801H101.049V19H91.4841ZM103.09 19V4.38182H108.572C109.695 4.38182 110.637 4.57692 111.399 4.96712C112.165 5.35731 112.743 5.90454 113.133 6.60881C113.528 7.30831 113.726 8.1244 113.726 9.05707C113.726 9.9945 113.526 10.8082 113.126 11.4982C112.731 12.1834 112.148 12.714 111.377 13.0899C110.606 13.4611 109.659 13.6467 108.536 13.6467H104.632V11.4482H108.18C108.836 11.4482 109.374 11.3578 109.793 11.177C110.211 10.9914 110.521 10.7225 110.721 10.3704C110.925 10.0135 111.028 9.57575 111.028 9.05707C111.028 8.53839 110.925 8.09584 110.721 7.72944C110.516 7.35827 110.204 7.07752 109.786 6.88718C109.367 6.69208 108.827 6.59453 108.165 6.59453H105.738V19H103.09ZM110.642 12.3761L114.261 19H111.306L107.751 12.3761H110.642Z" fill="white"/>
</g>
<defs>
<clipPath id="clip0_318_13">
<rect width="115" height="22" fill="white"/>
</clipPath>
</defs>
</svg>
